<svg xmlns="http://www.w3.org/2000/svg" xmlns:xlink="http://www.w3.org/1999/xlink" width="1080" zoomAndPan="magnify" viewBox="0 0 810 929.999989" height="1240" preserveAspectRatio="xMidYMid meet" version="1.0"><defs><clipPath id="04b35c2aba"><path d="M 37.628906 161 L 772.628906 161 L 772.628906 770 L 37.628906 770 Z M 37.628906 161 " clip-rule="nonzero"/></clipPath></defs><g clip-path="url(#04b35c2aba)"><path fill="#ffffff" d="M 297.6875 769.167969 C 284.707031 769.167969 272.007812 768.21875 259.59375 766.324219 C 212.5 759.027344 168.441406 736.191406 135.371094 701.890625 C 130.253906 696.582031 125.324219 691.277344 120.304688 686.066406 L 117.460938 683.03125 C 105.617188 670.621094 94.054688 658.394531 81.832031 646.835938 C 79.179688 644.277344 76.429688 641.8125 73.777344 639.445312 C 68.660156 634.707031 63.261719 629.875 58.425781 624.664062 C 54.351562 620.210938 50.753906 615.28125 47.4375 610.449219 C 44.59375 606.46875 41.75 602.394531 38.433594 598.605469 L 37.769531 597.847656 L 38.8125 597.5625 C 48.476562 594.71875 58.046875 590.929688 67.429688 587.234375 C 87.800781 579.179688 108.835938 570.839844 131.484375 572.074219 C 136.507812 572.359375 141.625 572.738281 146.550781 573.210938 C 165.121094 574.726562 182.652344 576.148438 200.941406 571.601562 C 219.988281 567.621094 238.085938 554.449219 249.265625 536.351562 C 254.003906 527.820312 258.363281 518.914062 262.34375 509.914062 C 280.25 469.738281 291.90625 423.875 297.972656 369.863281 C 298.253906 359.441406 297.59375 348.921875 295.886719 335.847656 C 293.613281 318.410156 290.011719 300.691406 286.601562 283.445312 C 283.472656 267.8125 280.15625 251.609375 277.882812 235.59375 C 274.945312 214.746094 280.632812 195.703125 294.085938 181.960938 C 309.058594 166.707031 332.460938 159.316406 356.625 162.253906 C 370.363281 163.863281 384.011719 165.949219 397.277344 168.03125 C 429.871094 173.054688 460.667969 177.886719 493.453125 175.898438 C 499.140625 175.898438 504.730469 178.742188 510.128906 181.394531 C 521.21875 188.214844 531.167969 198.070312 540.453125 211.621094 C 547.84375 222.421875 554.097656 234.171875 560.066406 245.449219 L 561.773438 248.765625 C 565.65625 256.441406 569.449219 264.683594 573.710938 274.632812 C 579.300781 287.710938 584.703125 301.355469 589.914062 314.527344 C 598.726562 336.699219 607.824219 359.628906 618.53125 381.519531 C 625.828125 396.867188 634.828125 410.988281 644.304688 425.863281 C 650.652344 435.8125 657.191406 446.140625 663.160156 456.753906 C 674.34375 477.316406 684.199219 498.257812 692.632812 519.011719 C 704 547.246094 712.71875 575.390625 719.445312 605.238281 C 721.058594 612.535156 722.574219 620.019531 723.996094 627.601562 C 726.742188 652.332031 736.125 674.695312 745.21875 696.394531 C 749.863281 707.574219 754.789062 719.039062 758.582031 730.789062 L 763.980469 744.433594 C 766.539062 750.878906 769.097656 757.320312 771.65625 763.765625 L 772.226562 765.1875 L 770.804688 764.617188 C 755.738281 758.933594 740.105469 752.488281 724.941406 746.332031 C 669.890625 723.683594 612.941406 700.375 555.804688 699.140625 C 536.28125 698.761719 513.824219 699.234375 495.441406 705.964844 C 483.789062 710.226562 472.796875 716.671875 462.089844 722.925781 C 453.941406 727.664062 445.507812 732.589844 436.789062 736.570312 C 417.363281 745.382812 397.65625 752.585938 378.230469 757.890625 C 350.65625 765.375 323.648438 769.167969 297.6875 769.167969 Z M 40.234375 598.414062 C 43.265625 602.015625 45.917969 605.808594 48.574219 609.597656 C 51.984375 614.335938 55.394531 619.261719 59.46875 623.621094 C 64.300781 628.832031 69.609375 633.664062 74.726562 638.308594 C 77.378906 640.773438 80.125 643.234375 82.78125 645.792969 C 95.003906 657.449219 106.660156 669.578125 118.410156 682.085938 L 121.25 685.117188 C 126.179688 690.328125 131.199219 695.636719 136.316406 700.941406 C 169.101562 735.054688 212.976562 757.796875 259.691406 764.996094 C 296.644531 770.683594 336.441406 767.839844 377.945312 756.5625 C 397.277344 751.257812 416.984375 744.152344 436.316406 735.339844 C 444.9375 731.453125 453.371094 726.527344 461.425781 721.789062 C 472.132812 715.535156 483.3125 708.996094 495.0625 704.730469 C 513.636719 698.003906 536.28125 697.4375 555.898438 697.816406 C 613.226562 698.953125 670.363281 722.453125 725.511719 745.097656 C 740.105469 751.066406 755.265625 757.320312 769.855469 762.816406 C 767.488281 756.847656 765.121094 750.878906 762.75 744.910156 L 757.347656 731.265625 C 753.464844 719.609375 748.632812 708.144531 743.988281 696.960938 C 734.890625 675.167969 725.417969 652.710938 722.667969 627.789062 C 721.246094 620.304688 719.730469 612.722656 718.121094 605.523438 C 711.488281 575.863281 702.769531 547.722656 691.398438 519.578125 C 683.0625 498.828125 673.207031 477.886719 662.023438 457.417969 C 656.148438 446.804688 649.515625 436.570312 643.167969 426.621094 C 634.070312 412.3125 624.597656 397.53125 617.300781 382.183594 C 606.59375 360.292969 597.496094 337.363281 588.683594 315.09375 C 583.472656 301.921875 578.070312 288.277344 572.480469 275.203125 C 568.214844 265.253906 564.425781 257.007812 560.539062 249.332031 L 558.835938 246.015625 C 552.867188 234.742188 546.707031 222.992188 539.316406 212.285156 C 530.125 198.921875 520.363281 189.164062 509.46875 182.53125 C 504.160156 179.878906 498.664062 177.128906 493.359375 177.128906 C 460.476562 179.023438 429.585938 174.285156 396.992188 169.171875 C 383.820312 167.085938 370.175781 165 356.4375 163.390625 C 332.652344 160.546875 309.722656 167.75 295.035156 182.71875 C 281.863281 196.175781 276.273438 214.746094 279.210938 235.121094 C 281.484375 251.039062 284.707031 267.242188 287.925781 282.878906 C 291.433594 300.121094 294.9375 317.9375 297.214844 335.371094 C 298.917969 348.542969 299.582031 359.0625 299.296875 369.675781 C 293.234375 423.96875 281.578125 469.925781 263.574219 510.199219 C 259.59375 519.199219 255.140625 528.105469 250.402344 536.730469 C 239.03125 555.207031 220.554688 568.664062 201.226562 572.640625 C 182.746094 577.285156 165.125 575.863281 146.457031 574.347656 C 141.527344 573.96875 136.507812 573.496094 131.484375 573.210938 C 109.21875 571.980469 88.277344 580.222656 67.996094 588.277344 C 58.902344 591.972656 49.613281 595.667969 40.234375 598.414062 Z M 40.234375 598.414062 " fill-opacity="1" fill-rule="nonzero"/></g><path fill="#ffffff" d="M 278.546875 227.351562 L 277.3125 226.78125 C 291.527344 195.605469 327.15625 195.226562 352.644531 197.691406 C 373.398438 199.964844 394.71875 204.796875 415.375 209.535156 C 457.917969 219.296875 501.886719 229.339844 544.148438 217.78125 L 544.527344 219.105469 C 501.886719 230.761719 457.730469 220.621094 415.089844 210.863281 C 394.433594 206.125 373.113281 201.292969 352.550781 199.019531 C 327.34375 196.648438 292.378906 196.933594 278.546875 227.351562 Z M 278.546875 227.351562 " fill-opacity="1" fill-rule="nonzero"/><path fill="#ffffff" d="M 284.421875 269.421875 L 283.378906 268.570312 C 300.71875 248.101562 324.3125 237.679688 351.507812 238.4375 C 374.628906 239.101562 397.277344 246.015625 419.164062 252.648438 C 424.566406 254.261719 430.15625 255.964844 435.652344 257.578125 C 458.015625 263.925781 478.292969 267.148438 497.621094 267.335938 C 501.414062 267.335938 505.203125 267.527344 508.898438 267.714844 C 516.289062 268 524.058594 268.378906 531.546875 267.714844 C 541.777344 266.863281 555.898438 265.0625 568.3125 263.074219 L 568.5 264.398438 C 555.992188 266.390625 541.875 268.191406 531.640625 269.042969 C 524.058594 269.707031 516.289062 269.421875 508.804688 269.042969 C 505.109375 268.851562 501.316406 268.757812 497.621094 268.664062 C 478.199219 268.472656 457.824219 265.253906 435.367188 258.808594 C 429.871094 257.199219 424.28125 255.492188 418.785156 253.882812 C 396.992188 247.25 374.441406 240.425781 351.507812 239.761719 C 324.691406 239.003906 301.476562 249.238281 284.421875 269.421875 Z M 284.421875 269.421875 " fill-opacity="1" fill-rule="nonzero"/><path fill="#ffffff" d="M 593.328125 325.140625 C 582.144531 324.476562 569.164062 323.8125 556.941406 323.242188 C 548.789062 323.621094 540.453125 323.8125 531.261719 323.8125 C 522.070312 323.621094 513.636719 323.148438 505.488281 322.484375 C 473.460938 321.441406 443.234375 313.671875 411.109375 305.429688 C 394.71875 301.164062 377.757812 296.804688 360.605469 293.488281 C 329.714844 288.5625 305.648438 297.753906 294.558594 318.695312 L 293.328125 318.03125 C 304.605469 296.617188 329.242188 287.140625 360.792969 292.164062 C 377.945312 295.480469 394.90625 299.839844 411.394531 304.101562 C 443.421875 312.347656 473.648438 320.117188 505.488281 321.160156 C 513.636719 321.824219 522.070312 322.203125 531.167969 322.484375 C 540.261719 322.484375 548.601562 322.296875 556.75 321.917969 C 569.164062 322.390625 582.050781 323.054688 593.230469 323.8125 Z M 593.328125 325.140625 " fill-opacity="1" fill-rule="nonzero"/><path fill="#ffffff" d="M 571.058594 388.816406 C 566.132812 388.816406 561.394531 388.625 556.84375 388.152344 C 548.507812 387.394531 539.410156 386.066406 528.324219 383.980469 C 519.796875 383.035156 510.320312 381.613281 499.519531 379.625 C 489.949219 377.726562 479.902344 375.453125 469.667969 372.992188 C 463.792969 371.570312 457.917969 369.957031 451.664062 368.347656 C 418.597656 359.628906 384.484375 350.535156 352.265625 354.988281 C 342.316406 356.3125 332.9375 358.964844 324.503906 362.851562 C 315.121094 367.210938 306.308594 373.652344 298.253906 382.183594 L 297.308594 381.234375 C 305.550781 372.613281 314.554688 366.074219 324.027344 361.621094 C 332.652344 357.734375 342.128906 355.082031 352.171875 353.660156 C 384.671875 349.300781 418.976562 358.304688 452.140625 367.117188 C 458.394531 368.726562 464.171875 370.335938 470.046875 371.757812 C 480.28125 374.222656 490.328125 376.496094 499.800781 378.390625 C 510.605469 380.382812 519.984375 381.804688 528.609375 382.75 C 539.695312 384.742188 548.792969 386.066406 557.035156 386.824219 C 576.363281 388.625 599.105469 386.539062 618.058594 381.140625 L 618.4375 382.464844 C 603.75 386.539062 586.882812 388.816406 571.058594 388.816406 Z M 571.058594 388.816406 " fill-opacity="1" fill-rule="nonzero"/><path fill="#ffffff" d="M 284.707031 448.796875 L 283.949219 447.660156 C 311.617188 430.222656 343.453125 419.421875 376.144531 416.484375 C 385.90625 415.726562 395.757812 415.820312 406.277344 416.769531 C 416.417969 417.714844 426.648438 419.421875 437.546875 421.886719 C 442.949219 423.117188 448.253906 424.726562 453.371094 426.339844 C 457.824219 427.664062 462.375 429.085938 466.921875 430.222656 C 476.300781 432.59375 486.535156 433.066406 496.390625 433.445312 L 498.664062 433.539062 C 545.472656 435.71875 597.023438 425.390625 638.429688 417.148438 L 638.714844 418.472656 C 597.210938 426.8125 545.664062 437.140625 498.664062 434.960938 L 496.390625 434.867188 C 486.441406 434.394531 476.113281 433.917969 466.636719 431.550781 C 461.996094 430.414062 457.445312 428.992188 452.992188 427.664062 C 447.875 426.054688 442.570312 424.441406 437.261719 423.210938 C 426.460938 420.746094 416.320312 419.042969 406.183594 418.1875 C 395.757812 417.242188 385.90625 417.148438 376.238281 417.90625 C 343.832031 420.746094 312.183594 431.457031 284.707031 448.796875 Z M 284.707031 448.796875 " fill-opacity="1" fill-rule="nonzero"/><path fill="#ffffff" d="M 281.578125 501.859375 C 277.695312 501.859375 273.144531 500.722656 267.933594 498.351562 L 268.503906 497.121094 C 274.757812 499.871094 279.96875 500.910156 284.042969 500.25 C 287.074219 499.773438 290.011719 498.351562 292.855469 496.933594 C 294.371094 496.171875 295.980469 495.414062 297.496094 494.847656 C 299.488281 494.089844 301.570312 493.234375 303.5625 492.476562 C 306.308594 491.4375 309.058594 490.296875 311.804688 489.257812 C 331.421875 481.675781 349.042969 476.558594 365.4375 473.335938 C 374.820312 471.535156 384.105469 470.398438 393.105469 469.832031 C 402.867188 469.261719 414.425781 468.980469 426.746094 471.441406 C 437.640625 473.527344 446.171875 474.664062 454.414062 475.136719 C 464.933594 475.707031 475.828125 475.515625 487.671875 474.570312 C 513.257812 473.148438 538.652344 467.179688 563.097656 461.398438 C 593.894531 454.101562 625.828125 446.519531 658.046875 448.226562 L 657.949219 449.554688 C 625.921875 447.847656 594.085938 455.429688 563.382812 462.628906 C 538.839844 468.410156 513.351562 474.472656 487.671875 475.894531 C 475.828125 476.9375 464.835938 477.128906 454.222656 476.464844 C 445.980469 475.992188 437.359375 474.855469 426.367188 472.769531 C 414.140625 470.398438 402.675781 470.683594 393.011719 471.253906 C 384.105469 471.726562 374.914062 472.957031 365.53125 474.664062 C 349.140625 477.789062 331.703125 483.003906 312.089844 490.488281 C 309.34375 491.53125 306.59375 492.667969 303.941406 493.710938 C 301.949219 494.46875 299.867188 495.320312 297.875 496.078125 C 296.359375 496.648438 294.84375 497.40625 293.328125 498.164062 C 290.390625 499.585938 287.453125 501.007812 284.136719 501.574219 C 283.472656 501.765625 282.527344 501.859375 281.578125 501.859375 Z M 281.578125 501.859375 " fill-opacity="1" fill-rule="nonzero"/><path fill="#ffffff" d="M 287.832031 543.648438 C 274.757812 543.648438 261.773438 541.847656 249.644531 537.203125 L 250.121094 535.972656 C 286.316406 549.902344 330.1875 537.960938 362.3125 529.242188 C 371.976562 526.78125 380.882812 524.886719 389.503906 523.558594 C 399.457031 522.042969 408.457031 521.378906 416.890625 521.472656 C 428.167969 520.808594 439.253906 519.671875 450.625 517.96875 C 480.1875 513.609375 509.65625 505.742188 538.082031 498.164062 C 563.003906 491.53125 588.777344 484.613281 615.214844 479.875 C 638.242188 477.03125 656.527344 476.652344 676.902344 483.855469 L 676.425781 485.183594 C 656.246094 478.074219 638.144531 478.359375 615.40625 481.203125 C 588.96875 485.941406 563.289062 492.855469 538.367188 499.488281 C 509.847656 507.070312 480.472656 515.03125 450.71875 519.390625 C 439.253906 521.09375 428.167969 522.230469 416.796875 522.894531 C 408.363281 522.800781 399.457031 523.464844 389.601562 524.980469 C 381.074219 526.304688 372.164062 528.105469 362.59375 530.664062 C 341.085938 536.351562 314.175781 543.648438 287.832031 543.648438 Z M 287.832031 543.648438 " fill-opacity="1" fill-rule="nonzero"/><path fill="#ffffff" d="M 297.402344 604.289062 C 282.050781 604.289062 268.785156 601.636719 256.941406 596.140625 C 243.105469 589.792969 230.597656 578.894531 220.839844 564.585938 L 221.976562 563.828125 C 231.640625 577.949219 243.867188 588.65625 257.511719 594.910156 C 277.03125 603.816406 300.433594 605.238281 331.324219 599.269531 C 351.699219 595.382812 371.882812 589.035156 391.402344 582.96875 C 398.128906 580.886719 405.046875 578.707031 411.964844 576.621094 C 425.511719 572.640625 439.347656 569.609375 452.804688 566.671875 C 456.6875 565.820312 460.574219 564.964844 464.457031 564.113281 C 475.449219 561.648438 485.589844 557.859375 496.390625 553.878906 L 500.558594 552.363281 C 505.867188 550.375 511.171875 548.382812 516.382812 546.394531 C 549.074219 534.078125 582.808594 521.285156 614.550781 518.535156 C 650.179688 515.503906 679.460938 525.644531 704.097656 549.617188 L 703.148438 550.5625 C 648.949219 497.691406 584.796875 521.949219 516.859375 547.53125 C 511.550781 549.519531 506.246094 551.511719 501.035156 553.5 L 496.863281 555.015625 C 486.535156 558.902344 475.921875 562.882812 464.742188 565.34375 C 460.855469 566.199219 456.972656 567.050781 453.085938 567.902344 C 439.726562 570.839844 425.796875 573.777344 412.34375 577.855469 C 405.519531 579.9375 398.507812 582.023438 391.78125 584.203125 C 372.261719 590.265625 351.980469 596.617188 331.515625 600.5 C 319.007812 603.058594 307.730469 604.289062 297.402344 604.289062 Z M 297.402344 604.289062 " fill-opacity="1" fill-rule="nonzero"/><path fill="#ffffff" d="M 311.617188 671.285156 C 302.992188 671.285156 294.371094 670.714844 285.84375 669.484375 C 241.117188 663.132812 204.730469 640.675781 180.664062 604.574219 C 175.355469 596.332031 173.460938 589.507812 170.808594 580.03125 C 170.429688 578.800781 170.050781 577.472656 169.671875 576.054688 L 170.996094 575.675781 C 171.375 577.09375 171.757812 578.328125 172.136719 579.652344 C 174.695312 589.035156 176.589844 595.761719 181.800781 603.816406 C 234.578125 682.558594 338.621094 683.316406 409.6875 643.898438 C 412.722656 642.289062 415.660156 640.773438 418.597656 639.160156 C 443.894531 625.800781 467.871094 613.101562 496.296875 608.082031 C 505.582031 605.523438 514.300781 603.25 522.828125 601.257812 C 542.253906 596.804688 559.6875 593.867188 576.269531 592.445312 C 587.261719 591.5 597.96875 591.214844 608.011719 591.59375 C 654.160156 593.109375 697.273438 611.113281 726.175781 640.773438 L 725.226562 641.71875 C 696.515625 612.25 653.78125 594.53125 608.011719 592.917969 C 597.96875 592.539062 587.355469 592.824219 576.460938 593.773438 C 559.972656 595.195312 542.535156 598.035156 523.207031 602.488281 C 514.773438 604.480469 506.054688 606.660156 496.675781 609.3125 C 468.4375 614.238281 444.558594 626.9375 419.355469 640.203125 C 416.417969 641.71875 413.480469 643.328125 410.445312 644.941406 C 379.367188 662.375 345.160156 671.285156 311.617188 671.285156 Z M 311.617188 671.285156 " fill-opacity="1" fill-rule="nonzero"/><path fill="#ffffff" d="M 294.558594 730.695312 C 238.273438 730.695312 185.96875 700.847656 159.722656 649.585938 L 156.121094 644.5625 C 151.195312 637.644531 146.644531 631.105469 141.8125 624.570312 C 140.105469 622.292969 138.402344 619.925781 136.695312 617.554688 C 125.894531 602.679688 114.710938 587.328125 100.878906 576.527344 L 101.730469 575.484375 C 115.660156 586.382812 126.9375 601.828125 137.832031 616.703125 C 139.539062 619.074219 141.246094 621.441406 142.949219 623.714844 C 147.78125 630.253906 152.425781 636.792969 157.351562 643.710938 L 160.953125 648.824219 C 194.972656 715.535156 273.238281 745.667969 346.867188 720.652344 C 370.175781 712.882812 392.253906 701.792969 413.480469 691.085938 C 449.488281 672.988281 483.503906 655.933594 523.492188 653.183594 C 532.871094 651.953125 542.441406 651.101562 551.824219 650.722656 C 573.523438 649.867188 595.316406 651.289062 616.730469 655.078125 C 635.304688 658.300781 653.78125 663.417969 671.59375 670.050781 C 680.691406 673.460938 689.410156 678.011719 697.84375 682.371094 L 699.644531 683.316406 C 704.949219 686.066406 710.632812 689.003906 716.414062 691.5625 C 717.929688 692.222656 719.445312 692.886719 721.058594 693.550781 C 725.320312 695.351562 729.679688 697.246094 733.851562 699.425781 C 739.15625 702.269531 743.703125 704.257812 748.632812 705.109375 L 748.441406 706.4375 C 743.324219 705.585938 738.683594 703.5 733.1875 700.65625 C 729.015625 698.476562 724.660156 696.582031 720.488281 694.78125 C 718.972656 694.121094 717.363281 693.457031 715.847656 692.792969 C 710.066406 690.234375 704.378906 687.296875 698.980469 684.550781 L 697.179688 683.601562 C 688.746094 679.242188 680.125 674.695312 671.121094 671.285156 C 653.402344 664.648438 635.019531 659.628906 616.542969 656.40625 C 595.222656 652.710938 573.523438 651.195312 551.917969 652.046875 C 542.535156 652.425781 532.964844 653.28125 523.585938 654.511719 C 483.789062 657.257812 449.867188 674.316406 414.046875 692.320312 C 392.726562 703.027344 370.648438 714.113281 347.246094 721.882812 C 329.714844 727.851562 311.902344 730.695312 294.558594 730.695312 Z M 294.558594 730.695312 " fill-opacity="1" fill-rule="nonzero"/><path fill="#ffffff" d="M 89.980469 653.941406 L 89.316406 652.710938 C 104.195312 645.035156 119.449219 637.550781 134.136719 630.253906 L 140.105469 627.316406 C 158.867188 618.03125 177.535156 609.785156 191.65625 603.722656 C 205.394531 597.847656 218.28125 590.171875 229.9375 580.980469 C 252.582031 563.261719 269.070312 540.140625 277.410156 514.175781 C 281.292969 504.511719 284.609375 494.183594 287.546875 482.625 C 294.558594 455.429688 297.972656 427.378906 300.910156 400.945312 C 301.382812 396.585938 301.949219 392.320312 302.425781 387.960938 C 304.035156 374.695312 305.742188 361.050781 305.742188 347.5 C 305.742188 331.773438 302.613281 316.136719 299.488281 300.976562 C 299.109375 298.984375 298.632812 296.996094 298.253906 295.007812 C 291.621094 261.746094 284.707031 227.351562 286.125 191.816406 L 287.453125 191.910156 C 286.03125 227.351562 292.949219 261.652344 299.582031 294.816406 C 299.960938 296.804688 300.339844 298.796875 300.8125 300.785156 C 303.941406 316.042969 307.066406 331.773438 307.066406 347.597656 C 307.066406 361.242188 305.363281 374.980469 303.65625 388.246094 C 303.089844 392.605469 302.613281 396.871094 302.140625 401.226562 C 299.203125 427.757812 295.695312 455.902344 288.78125 483.097656 C 285.84375 494.65625 282.429688 505.082031 278.546875 514.746094 C 270.113281 540.898438 253.53125 564.207031 230.597656 582.117188 C 218.753906 591.308594 205.773438 599.078125 192.035156 605.046875 C 177.914062 611.113281 159.25 619.355469 140.488281 628.644531 L 134.515625 631.582031 C 120.113281 638.78125 104.859375 646.363281 89.980469 653.941406 Z M 89.980469 653.941406 " fill-opacity="1" fill-rule="nonzero"/><path fill="#ffffff" d="M 145.414062 710.605469 L 144.371094 709.753906 C 157.730469 693.644531 172.988281 677.820312 187.769531 662.566406 C 225.105469 624 263.667969 584.011719 279.019531 532.65625 C 283.1875 521.757812 286.410156 512.757812 289.160156 504.132812 C 301.761719 464.242188 307.542969 421.503906 313.132812 380.191406 C 314.175781 372.515625 315.21875 364.839844 316.257812 357.261719 C 315.597656 347.976562 314.554688 338.027344 313.039062 326.75 C 311.332031 314.242188 309.152344 301.734375 307.164062 289.605469 C 300.71875 251.703125 294.558594 215.882812 300.054688 176.84375 L 301.382812 177.035156 C 295.980469 215.882812 302.046875 251.511719 308.488281 289.320312 C 310.574219 301.449219 312.660156 313.957031 314.363281 326.464844 C 315.878906 337.742188 316.921875 347.785156 317.585938 357.070312 L 317.585938 357.261719 C 316.542969 364.839844 315.5 372.515625 314.457031 380.191406 C 308.867188 421.601562 303.183594 464.335938 290.484375 504.417969 C 287.738281 513.039062 284.515625 522.136719 280.347656 533.035156 C 264.902344 584.675781 226.144531 624.757812 188.71875 663.417969 C 173.933594 678.675781 158.679688 694.5 145.414062 710.605469 Z M 145.414062 710.605469 " fill-opacity="1" fill-rule="nonzero"/><path fill="#ffffff" d="M 195.160156 745.097656 L 193.835938 744.625 C 205.394531 711.082031 222.070312 681.894531 239.601562 651.003906 C 246.425781 639.066406 253.4375 626.652344 260.164062 614.144531 C 278.734375 579.84375 290.011719 543.171875 299.109375 511.617188 C 302.898438 500.25 306.40625 488.402344 309.625 476.464844 C 315.691406 453.816406 321.09375 429.464844 325.449219 404.070312 C 328.578125 386.257812 331.230469 367.117188 329.902344 347.597656 C 328.863281 332.339844 325.828125 316.894531 322.988281 301.921875 C 322.324219 298.324219 321.566406 294.722656 320.902344 291.214844 C 314.078125 255.113281 306.40625 214.179688 314.457031 174.382812 C 314.933594 172.011719 315.5 169.644531 316.070312 167.371094 L 317.394531 167.652344 C 316.828125 169.929688 316.257812 172.296875 315.785156 174.664062 C 307.824219 214.179688 315.5 254.925781 322.230469 290.933594 C 322.890625 294.53125 323.554688 298.039062 324.3125 301.640625 C 327.25 316.609375 330.28125 332.054688 331.324219 347.5 C 332.652344 367.210938 330 386.445312 326.871094 404.355469 C 322.511719 429.84375 317.113281 454.195312 311.046875 476.84375 C 307.824219 488.78125 304.226562 500.722656 300.53125 512.09375 C 291.433594 543.742188 280.15625 580.507812 261.488281 614.902344 C 254.855469 627.503906 247.75 639.824219 240.929688 651.859375 C 223.304688 682.558594 206.625 711.742188 195.160156 745.097656 Z M 195.160156 745.097656 " fill-opacity="1" fill-rule="nonzero"/><path fill="#ffffff" d="M 247.65625 763.292969 L 246.328125 763.292969 C 246.519531 744.246094 250.6875 725.863281 260.257812 701.890625 C 277.976562 651.195312 296.457031 596.425781 311.710938 539.191406 C 313.320312 532.9375 314.933594 526.96875 316.542969 521.1875 C 318.058594 515.597656 319.480469 510.101562 320.902344 504.605469 C 323.933594 492.953125 326.492188 481.769531 328.671875 470.589844 C 330.945312 458.554688 334.546875 446.804688 337.957031 435.433594 C 342.695312 419.800781 347.527344 403.691406 349.042969 386.917969 C 349.519531 378.109375 349.328125 369.011719 348.570312 358.304688 C 346.867188 335.65625 342.789062 312.441406 338.90625 290.078125 C 334.546875 265.441406 330.09375 239.953125 328.765625 214.84375 C 328.765625 196.839844 330.664062 178.359375 334.074219 162.820312 L 335.398438 163.105469 C 331.988281 178.550781 330.1875 196.933594 330.1875 214.84375 C 331.515625 239.859375 335.96875 265.253906 340.328125 289.890625 C 344.308594 312.347656 348.382812 335.5625 350.085938 358.304688 C 350.84375 369.105469 351.035156 378.296875 350.5625 387.109375 C 349.042969 404.070312 344.117188 420.273438 339.378906 436.003906 C 335.96875 447.28125 332.460938 459.027344 330.1875 470.96875 C 328.007812 482.246094 325.449219 493.425781 322.417969 505.082031 C 320.996094 510.578125 319.480469 515.976562 318.058594 521.664062 C 316.542969 527.441406 314.933594 533.414062 313.226562 539.667969 C 298.066406 596.898438 279.492188 651.761719 261.773438 702.457031 C 251.917969 726.148438 247.75 744.433594 247.65625 763.292969 Z M 247.65625 763.292969 " fill-opacity="1" fill-rule="nonzero"/><path fill="#ffffff" d="M 304.984375 769.449219 C 303.941406 751.445312 306.6875 734.675781 313.511719 718.28125 C 340.136719 647.308594 350.183594 571.601562 355.960938 513.609375 C 357.667969 500.152344 359.089844 489.824219 360.605469 480.347656 C 364.679688 454.765625 369.417969 433.824219 375.671875 414.210938 C 377.28125 405.492188 378.230469 396.300781 378.417969 385.972656 C 379.082031 347.597656 370.648438 310.261719 361.648438 270.75 C 357.667969 253.410156 353.6875 235.5 350.464844 217.589844 C 346.488281 199.207031 347.433594 181.296875 353.308594 162.820312 L 354.636719 163.199219 C 348.855469 181.488281 348.003906 199.113281 351.886719 217.304688 C 355.109375 235.214844 359.183594 253.125 363.070312 270.371094 C 372.070312 309.976562 380.597656 347.40625 379.839844 385.972656 C 379.652344 396.300781 378.703125 405.585938 377.09375 414.492188 C 370.839844 434.011719 366.007812 454.953125 362.027344 480.445312 C 360.511719 490.015625 359.089844 500.25 357.382812 513.703125 C 351.601562 571.789062 341.558594 647.59375 314.835938 718.660156 C 308.109375 734.863281 305.265625 751.445312 306.40625 769.261719 Z M 304.984375 769.449219 " fill-opacity="1" fill-rule="nonzero"/><path fill="#ffffff" d="M 389.410156 754.195312 L 388.085938 754.003906 C 392.253906 723.113281 399.644531 692.128906 406.847656 662.09375 C 416.320312 622.390625 426.082031 581.359375 428.261719 541.089844 C 428.640625 531.421875 428.828125 521.757812 428.640625 512.1875 C 428.449219 502.523438 427.976562 492.667969 427.21875 483.003906 C 426.269531 471.253906 424.945312 459.410156 423.144531 447.660156 C 422.007812 437.140625 422.480469 427.097656 422.953125 416.484375 C 423.050781 413.925781 423.144531 411.367188 423.238281 408.714844 L 423.238281 406.34375 C 423.144531 395.449219 423.050781 385.121094 421.816406 373.652344 C 416.984375 348.355469 407.792969 323.621094 398.886719 299.742188 C 382.96875 257.007812 366.480469 212.851562 375.386719 164.8125 L 376.714844 165.09375 C 367.902344 212.757812 383.535156 254.734375 400.117188 299.269531 C 409.027344 323.242188 418.21875 347.976562 423.144531 373.464844 C 424.472656 385.023438 424.566406 395.449219 424.566406 406.34375 L 424.566406 408.714844 C 424.472656 411.367188 424.375 413.925781 424.28125 416.484375 C 423.808594 427 423.429688 437.046875 424.472656 447.375 C 426.269531 459.125 427.691406 471.0625 428.640625 482.8125 C 429.398438 492.476562 429.871094 502.332031 430.0625 512.09375 C 430.25 521.664062 430.15625 531.421875 429.683594 541.089844 C 427.503906 581.550781 417.742188 622.578125 408.171875 662.375 C 400.972656 692.414062 393.582031 723.398438 389.410156 754.195312 Z M 389.410156 754.195312 " fill-opacity="1" fill-rule="nonzero"/><path fill="#ffffff" d="M 465.40625 720.082031 C 461.996094 706.25 466.449219 692.792969 470.710938 679.714844 C 471.660156 676.875 472.605469 673.9375 473.460938 671.1875 C 475.261719 665.03125 477.25 658.777344 479.144531 652.710938 C 482.839844 640.960938 486.632812 628.832031 489.757812 616.703125 C 492.316406 606.660156 494.117188 597.46875 495.253906 588.5625 C 496.863281 578.042969 498.097656 567.523438 499.042969 557.195312 C 500.84375 535.972656 501.222656 514.839844 500.085938 494.375 C 499.992188 476.84375 497.527344 458.554688 492.503906 438.371094 C 490.328125 429.558594 487.671875 420.464844 484.640625 411.273438 C 479.714844 402.082031 475.070312 392.984375 470.710938 384.265625 C 465.691406 374.316406 461.046875 364.460938 456.308594 354.324219 C 450.527344 339.636719 443.707031 324.757812 437.167969 310.453125 C 416.796875 266.105469 395.757812 220.242188 400.023438 169.167969 L 401.351562 169.265625 C 397.179688 220.054688 418.121094 265.726562 438.398438 309.882812 C 444.9375 324.191406 451.761719 339.066406 457.636719 353.753906 C 462.277344 363.894531 467.015625 373.652344 472.039062 383.699219 C 476.398438 392.414062 481.039062 401.511719 485.96875 410.796875 C 489.09375 420.179688 491.746094 429.277344 493.925781 438.089844 C 498.949219 458.460938 501.414062 476.84375 501.507812 494.375 C 502.644531 514.839844 502.265625 536.066406 500.464844 557.386719 C 499.519531 567.808594 498.285156 578.328125 496.675781 588.84375 C 495.539062 597.753906 493.738281 606.945312 491.179688 617.082031 C 488.148438 629.210938 484.261719 641.339844 480.566406 653.089844 C 478.671875 659.15625 476.679688 665.410156 474.882812 671.566406 C 474.027344 674.410156 473.082031 677.347656 472.132812 680.191406 C 467.871094 693.078125 463.511719 706.34375 466.828125 719.796875 Z M 465.40625 720.082031 " fill-opacity="1" fill-rule="nonzero"/><path fill="#ffffff" d="M 549.453125 698.476562 C 544.148438 666.828125 551.253906 632.71875 559.023438 600.59375 C 560.066406 596.046875 561.109375 591.5 562.152344 586.949219 C 563.097656 582.78125 564.140625 578.515625 565.089844 574.253906 C 567.550781 563.449219 569.351562 555.207031 570.867188 547.34375 C 571.152344 545.636719 571.53125 543.929688 571.816406 542.226562 C 573.523438 533.128906 575.324219 523.84375 575.796875 514.746094 C 576.363281 502.523438 574.375 492.574219 569.542969 483.382812 C 552.488281 456.375 536.664062 427.378906 522.542969 397.152344 C 518.28125 388.339844 513.257812 378.203125 507.097656 368.253906 C 499.707031 354.132812 491.367188 339.824219 483.3125 325.992188 C 455.644531 278.613281 427.125 229.625 427.21875 173.054688 L 428.546875 173.054688 C 428.449219 229.246094 456.878906 278.042969 484.453125 325.234375 C 492.503906 339.066406 500.9375 353.472656 508.234375 367.589844 C 514.300781 377.539062 519.417969 387.773438 523.679688 396.585938 C 537.800781 426.71875 553.527344 455.710938 570.679688 482.71875 C 575.703125 492.097656 577.691406 502.238281 577.121094 514.746094 C 576.648438 523.9375 574.847656 533.316406 573.144531 542.414062 C 572.859375 544.121094 572.480469 545.824219 572.195312 547.53125 C 570.585938 555.394531 568.785156 563.734375 566.414062 574.535156 C 565.46875 578.800781 564.519531 582.96875 563.476562 587.234375 C 562.4375 591.78125 561.394531 596.332031 560.351562 600.878906 C 552.582031 632.90625 545.472656 666.925781 550.78125 698.289062 Z M 549.453125 698.476562 " fill-opacity="1" fill-rule="nonzero"/><path fill="#ffffff" d="M 634.355469 712.3125 C 619.003906 683.128906 614.648438 644.847656 621.46875 598.605469 C 621.847656 595.097656 622.226562 591.59375 622.605469 588.085938 C 623.175781 582.78125 623.742188 577.378906 624.3125 571.980469 C 626.492188 551.132812 624.785156 530.664062 619.195312 509.441406 C 614.265625 490.960938 606.214844 471.632812 594.464844 450.3125 C 580.628906 431.359375 567.933594 410.703125 555.898438 387.109375 C 551.726562 378.867188 547.652344 370.433594 543.675781 362.28125 C 542.347656 359.535156 541.019531 356.789062 539.695312 354.039062 C 537.230469 349.773438 534.671875 345.511719 532.113281 341.152344 C 529.367188 336.414062 526.523438 331.675781 523.773438 326.9375 C 517.238281 315.664062 512.214844 306.945312 507.570312 298.605469 C 487.957031 264.683594 464.457031 220.148438 457.066406 176.183594 L 458.394531 175.992188 C 465.691406 219.675781 489.1875 264.117188 508.804688 297.945312 C 513.445312 306.28125 518.375 315 525.007812 326.179688 C 527.753906 330.917969 530.597656 335.65625 533.347656 340.394531 C 535.902344 344.660156 538.367188 349.015625 540.925781 353.28125 C 542.253906 356.125 543.578125 358.871094 544.90625 361.621094 C 548.886719 369.769531 552.960938 378.203125 557.128906 386.445312 C 569.164062 409.945312 581.765625 430.601562 595.601562 449.554688 C 607.445312 470.96875 615.59375 490.394531 620.523438 509.0625 C 626.207031 530.476562 627.914062 551.132812 625.734375 572.167969 C 625.164062 577.570312 624.597656 582.875 624.027344 588.277344 C 623.648438 591.78125 623.269531 595.289062 622.890625 598.792969 C 616.164062 644.75 620.425781 682.75 635.683594 711.648438 Z M 634.355469 712.3125 " fill-opacity="1" fill-rule="nonzero"/><path fill="#ffffff" d="M 700.96875 736.191406 C 680.503906 698.382812 678.039062 659.914062 675.386719 619.167969 C 674.910156 612.0625 674.4375 604.765625 673.871094 597.46875 C 672.921875 589.414062 671.691406 581.359375 670.269531 573.496094 C 667.425781 557.386719 663.824219 541.5625 659.371094 526.304688 C 652.453125 502.332031 643.640625 479.78125 632.648438 457.417969 C 611.992188 426.433594 592 391.183594 571.816406 349.585938 C 567.835938 341.4375 563.667969 332.53125 558.550781 321.632812 C 554.949219 314.808594 550.875 307.609375 545.855469 298.890625 C 542.632812 293.300781 539.316406 287.710938 536 282.121094 L 532.585938 276.339844 C 529.839844 271.222656 527.09375 266.105469 524.25 260.800781 C 509.5625 233.699219 494.304688 205.652344 487.484375 177.035156 L 488.808594 176.75 C 495.539062 205.175781 510.699219 233.128906 525.386719 260.230469 C 528.230469 265.441406 531.070312 270.652344 533.726562 275.675781 L 537.136719 281.457031 C 540.453125 287.046875 543.675781 292.636719 546.992188 298.226562 C 552.011719 306.945312 556.085938 314.242188 559.6875 321.0625 C 564.804688 332.054688 569.070312 340.964844 572.953125 349.113281 C 593.136719 390.617188 613.035156 425.863281 633.691406 456.851562 C 644.777344 479.308594 653.589844 501.953125 660.507812 526.023438 C 664.960938 541.277344 668.5625 557.292969 671.40625 573.398438 C 672.828125 581.265625 673.964844 589.414062 675.007812 597.46875 C 675.574219 604.859375 676.046875 612.15625 676.523438 619.261719 C 679.175781 659.816406 681.640625 698.195312 701.917969 735.71875 Z M 700.96875 736.191406 " fill-opacity="1" fill-rule="nonzero"/></svg>